PathFileType	4	(X/Y/Z)	C:/Users/beibeiliu/ov580/test_trc/User1\sequence.22_training_dense_right.trc
DataRate	CameraRate	NumFrames	NumMarkers	Units	OrigDataRate	OrigDataStartFrame	OrigNumFrames
120	120	8	19	mm	120	1	66
Frame#	Time	ThumbCMC			ThumbMCP			ThumbIP			ThumbTip			IndexMCP			IndexPIP			IndexTip			MiddleMCP			MiddlePIP			MiddleTip			RingMCP			RingPIP			RingTip			PinkyMCP			PinkyPIP			PinkyTip			BackHand1			BackHand2			BackHand3	
		X0	Y0	Z0	X1	Y1	Z1	X2	Y2	Z2	X3	Y3	Z3	X4	Y4	Z4	X5	Y5	Z5	X6	Y6	Z6	X7	Y7	Z7	X8	Y8	Z8	X9	Y9	Z9	X10	Y10	Z10	X11	Y11	Z11	X12	Y12	Z12	X13	Y13	Z13	X14	Y14	Z14	X15	Y15	Z15	X16	Y16	Z16	X17	Y17	Z17	X18	Y18	Z18	
0	0	154.39	-1.35297	88.5448	132.997	-17.4036	62.3497	126.992	-24.1533	34.4381	124.266	-33.9316	12.3301	171.825	22.3644	6.71778	173.079	14.3813	-25.6902	171.471	-0.780807	-46.5081	203.342	22.3088	1.23193	201.142	13.5972	-30.5219	203.121	-12.0246	-54.9668	223.182	14.7127	8.49644	226.299	6.68731	-22.9865	226.678	-15.8876	-44.0186	241.369	-2.35804	25.7389	249.237	-8.69611	3.03926	251.265	-17.415	-20.1905	217.794	18.425	65.6734	216.099	20.3289	101.09	183.257	25.0105	81.8256	
1	0.00833333	151.754	-0.17431	83.6132	136.56	-17.1791	63.7565	128.067	-23.478	33.4344	120.702	-35.7161	13.9147	170.949	22.2305	6.90057	170.232	16.9601	-25.7022	174.006	-3.58012	-48.3659	198.611	22.8885	1.91811	199.298	11.9783	-33.8242	201.388	-12.6267	-56.4453	220.135	15.9988	6.15126	229.57	7.56294	-19.7926	224.465	-14.056	-43.8803	239.727	-2.01101	26.564	248.687	-8.56851	2.1214	245.503	-18.1888	-22.7633	216.569	18.3669	65.68	215.433	19.8314	100.482	181.981	26.9457	78.7898	
2	0.0166667	150.144	-0.494309	88.9858	136.733	-16.6196	61.5619	126.286	-23.5936	34.5395	123.561	-33.9608	13.5133	171.156	22.5004	6.66068	169.12	18.5803	-22.0294	174.361	-1.0007	-45.8626	198.897	22.9745	-2.9779	198.727	12.5673	-33.251	201.132	-13.7804	-56.7721	222.635	15.4235	7.97943	225.273	8.52907	-19.7888	224.908	-13.6471	-42.2279	240.164	-0.737998	25.3687	248.153	-8.51049	5.13351	246.716	-15.9983	-19.2337	217.409	18.9751	64.8275	218.504	21.1468	98.1451	183.849	27.3758	80.5088	
3	0.025	149.281	-0.682269	85.9493	134.039	-17.6644	63.9384	127.155	-23.7048	33.1	122.121	-35.8154	11.8908	168.725	22.1735	8.28408	169.189	16.0661	-25.8413	175.366	-2.57111	-47.2484	202.491	22.0424	-0.604487	202.464	10.5656	-33.8477	203.569	-13.8467	-54.9644	221.197	16.2042	6.1088	226.504	6.4866	-23.7561	223.592	-14.4511	-42.8643	239.822	-1.16905	26.5379	247.03	-7.52468	6.74136	247.839	-18.5399	-22.4483	214.617	20.6389	64.7255	216.551	18.5949	100.425	180.021	26.5236	76.6013	
4	0.0333333	148.492	-0.406446	84.4635	135.716	-18.0507	62.6394	127.078	-24.5144	34.2619	123.375	-36.1527	11.3597	170.981	22.1544	4.57744	169.439	17.8054	-23.3974	175.982	-2.43774	-46.5003	197.772	22.5246	2.25791	200.372	10.2514	-33.7058	200.982	-11.5001	-54.9894	220.228	14.3934	10.8797	223.68	6.14719	-24.3221	223.938	-15.161	-44.7473	240.846	-2.68066	29.3054	247.803	-8.86125	2.09201	247.669	-19.7212	-22.1544	215.216	18.7135	67.7415	219.651	19.726	100.56	185.336	24.9751	80.4584	
5	0.0416667	150.042	-0.418821	83.058	138.444	-17.5845	61.695	129.765	-25.0784	37.9893	124.256	-35.4485	14.5753	168.63	22.1311	5.67253	174.152	16.3261	-25.172	170.525	-1.63332	-49.9625	201.121	22.3866	1.98437	203.774	12.6274	-31.0999	201.152	-10.0216	-53.9666	220.357	15.6668	7.15973	227.643	8.08422	-21.72	222.702	-11.7662	-41.7387	243.544	-2.68507	25.8832	246.952	-6.74247	5.0161	250.192	-19.0774	-24.1501	220.35	17.8449	64.8565	217.791	19.1595	97.2863	186.042	25.7276	76.33	
6	0.05	152.757	0.174315	83.963	134.708	-15.9011	62.9533	124.999	-23.0577	35.1626	120.892	-35.5166	13.8585	170.626	23.6062	5.64893	169.589	18.9964	-25.7961	176.068	-0.411254	-48.2452	199.032	24.3823	0.53194	201.58	13.9204	-31.2886	201.393	-10.764	-55.0297	224.825	16.4684	7.59705	228.69	8.57119	-21.8189	226.12	-11.1135	-42.0734	240.704	-1.28784	27.862	250.458	-8.99753	3.30257	249.399	-19.1207	-24.2623	217.334	20.0177	67.6185	215.942	19.673	99.4292	184.332	26.3197	76.9175	
7	0.0583333	151.338	0.889627	88.2737	134.983	-14.2016	62.7175	126.175	-21.289	36.3041	121.473	-32.6292	11.9704	168.87	26.3017	5.54664	172.626	19.0515	-26.7328	173.449	0.591139	-50.6184	201.25	24.6043	-0.913287	201.631	14.483	-32.3659	203.588	-12.544	-57.6027	225.541	16.3449	6.8942	229.667	8.47441	-22.712	223.701	-8.61911	-42.7814	240.926	0.071379	29.1207	247.486	-5.14837	5.98545	250.614	-15.1111	-22.5845	217.293	22.7808	63.5014	216.866	21.2818	101.478	182.21	28.274	80.0529	
